<svg width="23" height="23" viewBox="0 0 23 23" fill="none" xmlns="http://www.w3.org/2000/svg">
<path d="M14.4346 2.375C15.9187 2.77332 17.272 3.55499 18.3586 4.64159C19.4452 5.72818 20.2269 7.08147 20.6252 8.56563" stroke="black" stroke-width="2" stroke-linecap="round" stroke-linejoin="round"/>
<path d="M13.5264 5.75488C14.419 5.99195 15.2331 6.46077 15.8862 7.11384C16.5392 7.7669 17.0081 8.581 17.2451 9.47363" stroke="black" stroke-width="2" stroke-linecap="round" stroke-linejoin="round"/>
<path d="M7.11719 11.6499C8.01759 13.5093 9.52112 15.009 11.3828 15.9046C11.5201 15.9696 11.672 15.9978 11.8235 15.9863C11.975 15.9748 12.1209 15.924 12.2469 15.839L14.9812 14.0124C15.1021 13.9305 15.2417 13.8805 15.387 13.8671C15.5324 13.8537 15.6788 13.8774 15.8125 13.9359L20.9313 16.1343C21.1062 16.2071 21.2524 16.3354 21.3472 16.4994C21.4421 16.6635 21.4804 16.8542 21.4563 17.0421C21.294 18.3084 20.6759 19.4722 19.7177 20.3157C18.7594 21.1592 17.5266 21.6246 16.25 21.6249C12.3049 21.6249 8.52139 20.0577 5.73179 17.2681C2.94218 14.4785 1.375 10.695 1.375 6.74991C1.37529 5.47329 1.84073 4.2405 2.68425 3.28224C3.52776 2.32398 4.69154 1.7059 5.95781 1.54366C6.14576 1.51952 6.33643 1.55783 6.50047 1.6527C6.66451 1.74756 6.79281 1.89372 6.86562 2.06866L9.06406 7.19835C9.12123 7.32998 9.14515 7.47365 9.1337 7.6167C9.12226 7.75976 9.07581 7.8978 8.99844 8.01866L7.17188 10.7968C7.09056 10.9224 7.04283 11.0669 7.03325 11.2162C7.02368 11.3656 7.05258 11.5149 7.11719 11.6499V11.6499Z" stroke="black" stroke-width="2" stroke-linecap="round" stroke-linejoin="round"/>
</svg>
