<svg width="24" height="24" viewBox="0 0 24 24" fill="none" xmlns="http://www.w3.org/2000/svg">
<path d="M12 22.5C17.799 22.5 22.5 17.799 22.5 12C22.5 6.20101 17.799 1.5 12 1.5C6.20101 1.5 1.5 6.20101 1.5 12C1.5 17.799 6.20101 22.5 12 22.5Z" stroke="black" stroke-width="2" stroke-miterlimit="10"/>
<path d="M2.10156 8.5H21.8984" stroke="black" stroke-width="2" stroke-linecap="round" stroke-linejoin="round"/>
<path d="M2.10156 15.5H21.8984" stroke="black" stroke-width="2" stroke-linecap="round" stroke-linejoin="round"/>
<path d="M12 22.2154C14.4162 22.2154 16.375 17.6417 16.375 11.9998C16.375 6.35787 14.4162 1.78418 12 1.78418C9.58375 1.78418 7.625 6.35787 7.625 11.9998C7.625 17.6417 9.58375 22.2154 12 22.2154Z" stroke="black" stroke-width="2" stroke-miterlimit="10"/>
</svg>
