<svg width="18" height="18" viewBox="0 0 18 18" fill="none" xmlns="http://www.w3.org/2000/svg">
<path d="M8.99998 0C7.22071 3.5023e-06 5.48136 0.527397 4.00171 1.51554C2.52206 2.50369 1.36848 3.90824 0.686772 5.55174C0.00506122 7.19523 -0.17418 9.00391 0.171642 10.7493C0.517464 12.4946 1.37284 14.0983 2.62973 15.3576C3.88661 16.617 5.48858 17.4756 7.23323 17.8249C8.97788 18.1742 10.7869 17.9985 12.4318 17.32C14.0766 16.6416 15.4835 15.4908 16.4745 14.0131C17.4656 12.5354 17.9965 10.7971 18 9.01785C18.0023 7.83445 17.7713 6.66222 17.32 5.56822C16.8688 4.47423 16.2062 3.47997 15.3703 2.64235C14.5343 1.80473 13.5413 1.14019 12.4483 0.686782C11.3552 0.233373 10.1834 -2.32937e-06 8.99998 0V0ZM8.99998 1.56547C10.6406 1.5655 12.2344 2.11214 13.5297 3.11904C12.5434 4.3459 11.2553 5.29555 9.79166 5.875C9.01596 4.45708 8.14282 3.09468 7.17855 1.79761C7.7736 1.64435 8.38552 1.56636 8.99998 1.56547V1.56547ZM5.64879 2.36905C6.62605 3.64995 7.51121 4.99858 8.2976 6.40476C6.17576 6.98137 3.98437 7.2618 1.7857 7.23809C2.04235 6.19676 2.52022 5.2229 3.18682 4.38272C3.85341 3.54255 4.69309 2.85576 5.64879 2.36905V2.36905ZM1.56546 9.01785C1.56546 8.95833 1.56546 8.89285 1.56546 8.82737C4.09177 8.87346 6.61046 8.5363 9.03569 7.82738C9.21427 8.17857 9.38092 8.54166 9.54163 8.89881C6.9511 9.73386 4.73669 11.4532 3.28571 13.756C2.17494 12.4269 1.56611 10.75 1.56546 9.01785V9.01785ZM8.99998 16.4524C7.34596 16.4545 5.73958 15.8988 4.44047 14.875C5.71402 12.7153 7.74394 11.1054 10.1369 10.3571C10.8266 12.1683 11.3389 14.0422 11.6666 15.9524C10.815 16.2751 9.91071 16.4365 8.99998 16.4286V16.4524ZM13.125 15.1964C12.7974 13.4353 12.3154 11.7064 11.6845 10.0298C13.2321 9.83401 14.8007 9.88222 16.3333 10.1726C16.1731 11.1818 15.8059 12.1469 15.2548 13.0074C14.7037 13.8678 13.9806 14.605 13.1309 15.1726L13.125 15.1964ZM11.0893 8.54762C10.9047 8.125 10.7143 7.70238 10.494 7.28571C12.1137 6.62465 13.545 5.57367 14.6607 4.22618C15.7028 5.45526 16.3134 6.99204 16.3988 8.60119C14.6456 8.28028 12.8511 8.25413 11.0893 8.5238V8.54762Z" fill="#282828"/>
</svg>
