<svg width="18" height="18" viewBox="0 0 18 18" fill="none" xmlns="http://www.w3.org/2000/svg">
<path fill-rule="evenodd" clip-rule="evenodd" d="M9.00344 1.61937C11.4048 1.61937 11.6886 1.61938 12.6367 1.67474C13.2065 1.68091 13.7709 1.78629 14.3045 1.98616C14.6941 2.1341 15.0478 2.36292 15.3425 2.65756C15.6371 2.9522 15.8659 3.30596 16.0138 3.6955C16.2137 4.22914 16.3191 4.79352 16.3253 5.36332L16.3269 5.40087C16.3672 6.31936 16.3806 6.62715 16.3806 8.99654C16.3806 11.3979 16.3806 11.6886 16.3253 12.6367C16.3183 13.2064 16.2129 13.7706 16.0138 14.3045C15.8652 14.6987 15.6285 15.0537 15.3218 15.3426C15.0304 15.6462 14.6761 15.8824 14.2837 16.0346C13.7501 16.2345 13.1857 16.3399 12.6159 16.346C11.6678 16.3875 11.3841 16.3945 8.9827 16.3945H8.98185C6.58124 16.3945 6.29054 16.3945 5.34255 16.346C4.77283 16.339 4.20861 16.2337 3.67475 16.0346C3.28521 15.8867 2.93145 15.6578 2.63681 15.3632C2.34217 15.0685 2.11332 14.7148 1.96538 14.3253C1.76632 13.7914 1.66096 13.2272 1.65395 12.6574C1.61243 11.7093 1.6055 11.4256 1.6055 9.0173C1.6055 6.609 1.60551 6.33218 1.65395 5.38408C1.66012 4.81428 1.76551 4.2499 1.96538 3.71626C2.11761 3.32392 2.35381 2.96962 2.65742 2.6782C2.94627 2.37153 3.30131 2.13484 3.69549 1.98616C4.22935 1.7871 4.79361 1.68175 5.36333 1.67474L5.40054 1.67311C6.31929 1.63285 6.62692 1.61937 9.00344 1.61937ZM9.00344 0H9.00221C6.5535 0 6.23511 0 5.28718 0.055354C4.54227 0.0693747 3.80517 0.209783 3.10727 0.470583C2.50824 0.698153 1.96535 1.05222 1.51558 1.50865C1.0557 1.95829 0.701183 2.50424 0.477511 3.10726C0.209917 3.80349 0.0669871 4.54141 0.055333 5.2872L0.0545554 5.30521C0.0136378 6.25304 0 6.56895 0 8.99654V9.00056C0 11.4398 0 11.7652 0.055333 12.7128C0.0677031 13.4585 0.210609 14.1963 0.477511 14.8927C0.709128 15.4897 1.06259 16.0319 1.51536 16.4846C1.96814 16.9374 2.5103 17.2909 3.10727 17.5225C3.80369 17.7894 4.54146 17.9323 5.28718 17.9446L5.30597 17.9454H5.306C6.2532 17.9863 6.56967 18 9.00344 18C11.4533 18 11.7716 18 12.7128 17.9446C13.4586 17.933 14.1965 17.7901 14.8927 17.5225C15.4958 17.2988 16.0417 16.9443 16.4914 16.4844C16.9478 16.0347 17.3018 15.4918 17.5294 14.8927C17.7902 14.1948 17.9306 13.4577 17.9447 12.7128L17.9454 12.6949C17.9864 11.747 18 11.4311 18 8.99654V8.9925C18 6.54636 18 6.22786 17.9447 5.2872C17.9315 4.54221 17.791 3.80494 17.5294 3.10726C17.2993 2.50747 16.9457 1.96277 16.4915 1.50853C16.0372 1.05429 15.4925 0.700652 14.8927 0.470583C14.195 0.209001 13.4578 0.0685669 12.7128 0.055354L12.6943 0.0545537C11.7469 0.0136536 11.4306 0 9.00344 0ZM9.00278 4.38064C8.08788 4.37927 7.19315 4.64941 6.43186 5.15685C5.67058 5.66429 5.077 6.38621 4.72625 7.2312C4.3755 8.0762 4.28339 9.00627 4.46154 9.90366C4.6397 10.801 5.08009 11.6254 5.72702 12.2723C6.37395 12.9192 7.19831 13.3597 8.0957 13.5378C8.99309 13.716 9.92316 13.6238 10.7682 13.2731C11.6132 12.9223 12.3351 12.3288 12.8425 11.5675C13.3499 10.8062 13.6201 9.91146 13.6187 8.99656C13.6169 7.77291 13.13 6.59989 12.2647 5.73464C11.3995 4.86938 10.2264 4.38247 9.00278 4.38064ZM9.00278 11.9931C8.40846 11.9945 7.8271 11.8195 7.33227 11.4903C6.83744 11.1611 6.45142 10.6925 6.22303 10.1438C5.99465 9.59513 5.93416 8.99101 6.04926 8.40794C6.16437 7.82488 6.4499 7.28906 6.86967 6.86833C7.28943 6.44759 7.82457 6.16086 8.40738 6.04441C8.99018 5.92795 9.59444 5.98703 10.1437 6.21415C10.6929 6.44127 11.1623 6.82623 11.4927 7.32029C11.823 7.81436 11.9993 8.39532 11.9993 8.98964C11.9993 9.78501 11.6838 10.5479 11.1221 11.111C10.5603 11.674 9.79815 11.9913 9.00278 11.9931ZM14.7038 4.77971C14.8224 4.60218 14.8857 4.39345 14.8857 4.17993C14.8857 3.89361 14.772 3.61901 14.5695 3.41655C14.3671 3.21409 14.0925 3.10035 13.8061 3.10035C13.5926 3.10035 13.3839 3.16367 13.2064 3.28229C13.0289 3.40092 12.8905 3.56953 12.8088 3.76679C12.727 3.96406 12.7056 4.18113 12.7473 4.39055C12.789 4.59997 12.8918 4.79233 13.0428 4.94332C13.1937 5.0943 13.3861 5.19712 13.5955 5.23878C13.805 5.28043 14.022 5.25905 14.2193 5.17734C14.4166 5.09563 14.5852 4.95725 14.7038 4.77971Z" fill="#282828"/>
</svg>
