<svg width="17" height="16" viewBox="0 0 17 16" fill="none" xmlns="http://www.w3.org/2000/svg">
<path fill-rule="evenodd" clip-rule="evenodd" d="M2.23458 3.93946C2.62519 3.94212 3.00777 3.82869 3.33376 3.61358C3.65974 3.39847 3.91439 3.09138 4.06541 2.73131C4.21643 2.37123 4.25701 1.97441 4.18195 1.59125C4.10689 1.20809 3.91959 0.855868 3.64386 0.579315C3.36812 0.302761 3.01638 0.114357 2.63331 0.0380185C2.25023 -0.03832 1.85309 0.000854083 1.49234 0.15057C1.13158 0.300285 0.823485 0.553786 0.607158 0.87888C0.390831 1.20397 0.276031 1.58599 0.277355 1.97643C0.27647 2.2339 0.326437 2.48902 0.4244 2.72714C0.522362 2.96527 0.666419 3.18172 0.84825 3.36409C1.03008 3.54647 1.24611 3.69117 1.484 3.78991C1.7219 3.88864 1.97699 3.93946 2.23458 3.93946ZM3.89611 5.33777H0.59375V15.9933H3.89611V5.33777ZM11.1934 8.01342C9.84824 8.01342 9.17567 8.90082 9.17567 10.4V16H6.00781V5.33778H9.18236V6.80333C9.5199 6.25673 9.99362 5.80708 10.5572 5.49834C11.1207 5.1896 11.7547 5.03235 12.3973 5.04198C14.6572 5.04198 16.2781 6.42014 16.2781 9.27729V16H12.9892V10.4C12.9892 8.86721 12.404 8.01342 11.1934 8.01342Z" fill="#282828"/>
</svg>
