<svg width="23" height="15" viewBox="0 0 23 15" fill="none" xmlns="http://www.w3.org/2000/svg">
<path fill-rule="evenodd" clip-rule="evenodd" d="M8.42023 14.388C9.00619 14.275 9.55885 14.0263 10.0355 13.6611C10.4419 13.3504 10.7836 12.9605 11.0408 12.5139C11.4708 11.8204 11.6919 11.0136 11.6766 10.1933C11.7002 9.44456 11.5091 8.70508 11.1268 8.06531C10.7295 7.46605 10.1498 7.01674 9.47704 6.78677C9.89237 6.57259 10.2607 6.27467 10.5597 5.91106C11.0266 5.30388 11.2617 4.54471 11.2213 3.77433C11.2437 2.98065 11.0147 2.2007 10.5683 1.55001C9.84652 0.542945 8.60927 0.0262714 6.87367 0H0V14.5456H6.42686C7.09484 14.5619 7.76272 14.5091 8.42023 14.388ZM2.81818 2.5746H5.92851C6.50981 2.55112 7.09083 2.62811 7.64692 2.80229C7.89902 2.91182 8.10969 3.10141 8.24749 3.34285C8.38528 3.58428 8.44284 3.86463 8.41163 4.14213C8.43753 4.38832 8.39774 4.63707 8.29642 4.86211C8.19509 5.08716 8.036 5.28013 7.83598 5.42066C7.37291 5.67718 6.85038 5.80125 6.32376 5.7797H2.88693L2.81818 2.5746ZM2.81818 12.0586V8.18791H6.32376C6.81047 8.1719 7.29539 8.25527 7.75002 8.43311C8.04325 8.56248 8.28905 8.7827 8.45254 9.0625C8.61602 9.34231 8.68888 9.66748 8.66078 9.99188C8.69869 10.3546 8.6299 10.7207 8.46313 11.0435C8.29636 11.3663 8.03918 11.6312 7.72427 11.8046C7.26787 11.9984 6.77456 12.0852 6.28081 12.0586H2.81818ZM14.0575 13.6611C15.1048 14.538 16.4225 15.0095 17.7778 14.9922C18.5115 15.033 19.2452 14.9134 19.9299 14.6415C20.6145 14.3697 21.2342 13.9518 21.7474 13.4159C22.2847 12.897 22.6433 12.2152 22.7698 11.4719H19.986C19.8485 11.7566 19.6556 12.0099 19.4189 12.2162C18.9808 12.5564 18.4398 12.7298 17.8896 12.7066C17.3552 12.724 16.8272 12.5841 16.3687 12.3038C16.0113 12.0516 15.7223 11.7115 15.5285 11.3149C15.3347 10.9184 15.2425 10.4783 15.2604 10.0357H22.9933C23.0152 9.32203 22.9836 8.6077 22.8987 7.89895C22.7838 7.10007 22.4898 6.33895 22.0395 5.67464C21.5946 4.9787 20.9621 4.42835 20.218 4.08961C19.4357 3.74025 18.5888 3.567 17.7349 3.58169C17.039 3.55435 16.3451 3.67317 15.6962 3.93078C15.0473 4.18839 14.4573 4.57928 13.963 5.07915C13.4512 5.65701 13.0589 6.33399 12.8095 7.06971C12.56 7.80542 12.4585 8.58481 12.5109 9.36138C12.4851 11.3142 13.0264 12.7854 14.0575 13.6611ZM16.7908 6.03255C16.5165 6.13502 16.2654 6.29296 16.0527 6.4968C15.6276 6.95864 15.3614 7.54916 15.2947 8.17918H20.0461C20.0455 7.86004 19.9804 7.54444 19.8548 7.25213C19.7291 6.95982 19.5456 6.69707 19.3158 6.4803C18.8572 6.08836 18.2729 5.88257 17.6747 5.90232C17.3744 5.88265 17.0733 5.92701 16.7908 6.03255ZM14.4254 0.884491H20.6288V2.35569H14.4254V0.884491Z" fill="white"/>
</svg>
