<svg fill="none" height="18" viewBox="0 0 18 18" width="18" xmlns="http://www.w3.org/2000/svg"><path clip-rule="evenodd" d="m9.00344 1.61937c2.40136 0 2.68516.00001 3.63326.05537.5698.00617 1.1342.11155 1.6678.31142.3896.14794.7433.37676 1.038.6714.2946.29464.5234.6484.6713 1.03794.1999.53364.3053 1.09802.3115 1.66782l.0016.03755c.0403.91849.0537 1.22628.0537 3.59567 0 2.40136 0 2.69206-.0553 3.64016-.007.5697-.1124 1.1339-.3115 1.6678-.1486.3942-.3853.7492-.692 1.0381-.2914.3036-.6457.5398-1.0381.692-.5336.1999-1.098.3053-1.6678.3114-.9481.0415-1.2318.0485-3.6332.0485h-.00085c-2.40061 0-2.69131 0-3.6393-.0485-.56972-.007-1.13394-.1123-1.6678-.3114-.38954-.1479-.7433-.3768-1.03794-.6714-.29464-.2947-.52349-.6484-.67143-1.0379-.19906-.5339-.30442-1.0981-.31143-1.6679-.04152-.9481-.04845-1.2318-.04845-3.6401s.00001-2.68512.04845-3.63322c.00617-.5698.11156-1.13418.31143-1.66782.15223-.39234.38843-.74664.69204-1.03806.28885-.30667.64389-.54336 1.03807-.69204.53386-.19906 1.09812-.30441 1.66784-.31142l.03721-.00163c.91875-.04026 1.22638-.05374 3.6029-.05374zm0-1.61937h-.00123c-2.44871 0-2.7671 0-3.71503.055354-.74491.0140207-1.48201.154429-2.17991.415229-.59903.22757-1.14192.581637-1.59169 1.038067-.45988.44964-.814397.99559-1.038069 1.59861-.267594.69623-.4105239 1.43415-.422178 2.17994l-.0007776.01801c-.0409176.94783-.0545554 1.26374-.0545554 3.69133v.00402c0 2.43924 0 2.76464.055333 3.71224.0123701.7457.155276 1.4835.422178 2.1799.231617.597.585079 1.1392 1.037849 1.5919.45278.4528.99494.8063 1.59191 1.0379.69642.2669 1.43419.4098 2.17991.4221l.01879.0008h.00003c.9472.0409 1.26367.0546 3.69744.0546 2.44986 0 2.76816 0 3.70936-.0554.7458-.0116 1.4837-.1545 2.1799-.4221.6031-.2237 1.149-.5782 1.5987-1.0381.4564-.4497.8104-.9926 1.038-1.5917.2608-.6979.4012-1.435.4153-2.1799l.0007-.0179c.041-.9479.0546-1.2638.0546-3.69836v-.00404c0-2.44614 0-2.76464-.0553-3.7053-.0132-.74499-.1537-1.48226-.4153-2.17994-.2301-.59979-.5837-1.14449-1.0379-1.59873-.4543-.45424-.999-.807878-1.5988-1.037947-.6977-.261582-1.4349-.4020161-2.1799-.415229l-.0185-.0008003c-.9474-.0409001-1.2637-.0545537-3.69086-.0545537zm-.00066 4.38064c-.9149-.00137-1.80963.26877-2.57092.77621-.76128.50744-1.35486 1.22936-1.70561 2.07435-.35075.845-.44286 1.77507-.26471 2.67246.17816.89734.61855 1.72174 1.26548 2.36864s1.47129 1.0874 2.36868 1.2655c.89739.1782 1.82746.086 2.6725-.2647.845-.3508 1.5669-.9443 2.0743-1.7056s.7776-1.65604.7762-2.57094c-.0018-1.22365-.4887-2.39667-1.354-3.26192-.8652-.86526-2.0383-1.35217-3.26192-1.354zm0 7.61246c-.59432.0014-1.17568-.1736-1.67051-.5028s-.88085-.7978-1.10924-1.3465c-.22838-.54867-.28887-1.15279-.17377-1.73586.11511-.58306.40064-1.11888.82041-1.53961.41976-.42074.9549-.70747 1.53771-.82392.5828-.11646 1.18706-.05738 1.73632.16974.5492.22712 1.0186.61208 1.349 1.10614.3303.49407.5066 1.07503.5066 1.66935 0 .79537-.3155 1.55826-.8772 2.12136-.5618.563-1.32395.8803-2.11932.8821zm5.70102-7.21339c.1186-.17753.1819-.38626.1819-.59978 0-.28632-.1137-.56092-.3162-.76338-.2024-.20246-.477-.3162-.7634-.3162-.2135 0-.4222.06332-.5997.18194-.1775.11863-.3159.28724-.3976.4845-.0818.19727-.1032.41434-.0615.62376s.1445.40178.2955.55277c.1509.15098.3433.2538.5527.29546.2095.04165.4265.02027.6238-.06144s.3659-.22009.4845-.39763z" fill="#fff" fill-rule="evenodd"/></svg>