<svg width="20" height="20" viewBox="0 0 20 20" fill="none" xmlns="http://www.w3.org/2000/svg">
<path fill-rule="evenodd" clip-rule="evenodd" d="M4.7125 6.44687C5.05427 6.4492 5.38902 6.34995 5.67424 6.16174C5.95946 5.97352 6.18227 5.70484 6.3144 5.38978C6.44654 5.07473 6.48205 4.72753 6.41637 4.39228C6.3507 4.05703 6.18682 3.74885 5.94556 3.50688C5.70431 3.2649 5.39655 3.10006 5.06137 3.03326C4.7262 2.96647 4.37872 3.00075 4.06307 3.13174C3.74742 3.26274 3.47785 3.48454 3.28857 3.76898C3.0993 4.05343 2.99885 4.38768 3.00001 4.7293C2.99924 4.95457 3.04295 5.17779 3.12867 5.38614C3.21438 5.59449 3.34042 5.78388 3.49952 5.94345C3.65861 6.10302 3.84763 6.22963 4.05578 6.31601C4.26393 6.4024 4.48712 6.44687 4.7125 6.44687ZM6.1665 7.67032H3.27707V16.9934H6.1665V7.67032ZM12.5518 10.0114C11.3748 10.0114 10.7864 10.7879 10.7864 12.0996V16.9994H8.01461V7.67035H10.7922V8.95264C11.0875 8.47439 11.502 8.08096 11.9951 7.81083C12.4882 7.5407 13.0429 7.40311 13.6052 7.41153C15.5824 7.41153 17.0007 8.61737 17.0007 11.1173V16.9994H14.123V12.0996C14.123 10.7584 13.6111 10.0114 12.5518 10.0114Z" fill="#282828"/>
</svg>
